<svg xmlns="http://www.w3.org/2000/svg">
    <symbol id="scissors" viewBox="0 0 24 24" fill="none"
        stroke="currentColor" stroke-width="2" stroke-linecap="round" stroke-linejoin="round"
        class="lucide lucide-scissors-icon lucide-scissors">
        <circle cx="6" cy="6" r="3" />
        <path d="M8.12 8.12 12 12" />
        <path d="M20 4 8.12 15.88" />
        <circle cx="6" cy="18" r="3" />
        <path d="M14.8 14.8 20 20" />
    </symbol>
    <symbol id="paper" viewBox="0 0 24 24" fill="none" stroke="currentColor"
        stroke-width="2" stroke-linecap="round" stroke-linejoin="round"
        class="lucide lucide-scroll-icon lucide-scroll">
        <path d="M19 17V5a2 2 0 0 0-2-2H4" />
        <path
            d="M8 21h12a2 2 0 0 0 2-2v-1a1 1 0 0 0-1-1H11a1 1 0 0 0-1 1v1a2 2 0 1 1-4 0V5a2 2 0 1 0-4 0v2a1 1 0 0 0 1 1h3" />
    </symbol>
    <symbol id="rock" viewBox="0 0 24 24" fill="none" stroke="currentColor"
        stroke-width="2" stroke-linecap="round" stroke-linejoin="round"
        class="lucide lucide-stone-icon lucide-stone">
        <path
            d="M11.264 2.205A4 4 0 0 0 6.42 4.211l-4 8a4 4 0 0 0 1.359 5.117l6 4a4 4 0 0 0 4.438 0l6-4a4 4 0 0 0 1.576-4.592l-2-6a4 4 0 0 0-2.53-2.53z" />
        <path d="M11.99 22 14 12l7.822 3.184" />
        <path d="M14 12 8.47 2.302" />
    </symbol>
    <symbol id="user" viewBox="0 0 24 24" fill="none" stroke="currentColor"
        stroke-width="2" stroke-linecap="round" stroke-linejoin="round"
        class="lucide lucide-user-icon lucide-user">
        <path d="M19 21v-2a4 4 0 0 0-4-4H9a4 4 0 0 0-4 4v2" />
        <circle cx="12" cy="7" r="4" />
    </symbol>
    <symbol id="bot" viewBox="0 0 24 24" fill="none" stroke="currentColor"
        stroke-width="2" stroke-linecap="round" stroke-linejoin="round"
        class="lucide lucide-bot-icon lucide-bot">
        <path d="M12 8V4H8" />
        <rect width="16" height="12" x="4" y="8" rx="2" />
        <path d="M2 14h2" />
        <path d="M20 14h2" />
        <path d="M15 13v2" />
        <path d="M9 13v2" />
    </symbol>
</svg>